<?xml version="1.0" encoding="utf-8"?>
<!-- Generator: Adobe Illustrator 22.1.0, SVG Export Plug-In . SVG Version: 6.00 Build 0) -->
<svg width="730" height="169" viewBox="0 0 730 169" fill="none" xmlns="http://www.w3.org/2000/svg">
<path fill-rule="evenodd" clip-rule="evenodd" d="M66.2662 153.475C38.6822 130.982 1 93.8241 1 58.6916C1 3.27656 52.564 -21.9128 94.75 23.426C136.936 -21.9128 188.5 3.27478 188.5 58.6912C188.5 93.825 150.818 130.982 123.234 153.475C110.747 163.658 104.503 168.75 94.75 168.75C84.9972 168.75 78.7534 163.658 66.2662 153.475ZM76.8737 72.6216C77.7128 71.4225 78.4103 70.4269 79.0309 69.5747C79.5559 70.4887 80.1419 71.5538 80.8469 72.8363L96.8809 101.988C98.4372 104.82 99.9644 107.598 101.497 109.613C103.138 111.77 106.022 114.726 110.644 114.812C115.266 114.899 118.26 112.054 119.98 109.96C121.588 108.004 123.217 105.286 124.879 102.515L125.399 101.648C127.469 98.1984 128.772 96.0413 129.925 94.4831C130.988 93.0478 131.602 92.5791 132.061 92.3203C132.518 92.0606 133.236 91.7756 135.014 91.6022C136.943 91.4147 139.463 91.4072 143.487 91.4072H151C154.883 91.4072 158.031 88.2591 158.031 84.3759C158.031 80.4928 154.883 77.3447 151 77.3447H143.183C139.554 77.3447 136.344 77.3447 133.653 77.6062C130.736 77.8894 127.897 78.5166 125.132 80.0831C122.366 81.6488 120.367 83.76 118.623 86.1159C117.015 88.2881 115.364 91.0406 113.496 94.1531L113.051 94.8956C112.238 96.2513 111.559 97.38 110.954 98.3494C110.384 97.3584 109.749 96.2044 108.987 94.8197L92.9613 65.6812C91.5166 63.0525 90.0766 60.4337 88.6169 58.5138C87.0213 56.4164 84.2866 53.6432 79.9037 53.4066C75.5207 53.1699 72.5029 55.6326 70.6912 57.5459C69.0328 59.2974 67.3197 61.7461 65.6002 64.2038L62.6998 68.3475C60.5703 71.3897 59.2352 73.2853 58.0795 74.6522C57.0156 75.9103 56.4243 76.3228 55.9879 76.5497C55.5514 76.7775 54.8747 77.025 53.2337 77.175C51.451 77.3381 49.1325 77.3447 45.419 77.3447H38.5C34.6168 77.3447 31.4688 80.4928 31.4688 84.3759C31.4688 88.2591 34.6168 91.4072 38.5 91.4072H45.7011C49.0477 91.4072 52.0143 91.4072 54.5126 91.1794C57.2225 90.9319 59.866 90.3853 62.4821 89.0231C65.0982 87.6609 67.062 85.8094 68.8188 83.7309C70.4384 81.8147 72.1395 79.3847 74.0585 76.6425L76.8737 72.6216Z" fill="#A05AFF" stroke="#FF5CBB" stroke-width="0.00225"/>
<path d="M269.976 111.072C279.875 111.072 284.824 107.403 284.824 100.064C284.824 97.0773 284.056 94.7307 282.52 93.024C281.069 91.3173 278.339 89.824 274.328 88.544L263.832 85.088C251.288 80.992 245.016 72.7573 245.016 60.384C245.016 53.216 247.235 47.328 251.672 42.72C256.195 38.0267 263.235 35.68 272.792 35.68C276.803 35.68 280.771 36.1493 284.696 37.088C288.621 37.9413 292.803 39.3493 297.24 41.312L292.504 54.496C288.408 52.8747 284.909 51.7227 282.008 51.04C279.192 50.272 276.291 49.888 273.304 49.888C269.379 49.888 266.264 50.6133 263.96 52.064C261.741 53.4293 260.632 55.9467 260.632 59.616C260.632 62.3467 261.4 64.608 262.936 66.4C264.557 68.1067 267.203 69.5573 270.872 70.752L281.368 74.208C287.683 76.3413 292.419 79.456 295.576 83.552C298.819 87.5627 300.44 92.896 300.44 99.552C300.44 107.232 298.008 113.461 293.144 118.24C288.28 122.933 280.643 125.28 270.232 125.28C266.136 125.28 261.869 124.811 257.432 123.872C253.08 122.848 248.301 121.141 243.096 118.752L247.832 105.568C252.611 107.616 256.664 109.067 259.992 109.92C263.405 110.688 266.733 111.072 269.976 111.072ZM343.138 125.28C341.005 125.28 338.829 125.067 336.61 124.64C334.477 124.213 332.301 123.616 330.082 122.848V151.264H315.362V59.104H329.314V67.936C333.325 63.9253 336.738 61.2373 339.554 59.872C342.37 58.5067 345.314 57.824 348.386 57.824C355.469 57.824 360.93 60.4693 364.77 65.76C368.61 71.0507 370.53 78.4747 370.53 88.032V94.944C370.53 104.245 368.183 111.627 363.49 117.088C358.797 122.549 352.013 125.28 343.138 125.28ZM344.418 71.52C342.455 71.52 340.365 72.1173 338.146 73.312C336.013 74.4213 333.325 76.5973 330.082 79.84V109.536C334.263 111.243 338.103 112.096 341.602 112.096C346.551 112.096 350.093 110.56 352.226 107.488C354.359 104.416 355.426 100.235 355.426 94.944V88.032C355.426 82.3147 354.445 78.1333 352.482 75.488C350.605 72.8427 347.917 71.52 344.418 71.52ZM440.732 87.648V95.328C440.732 104.373 438.257 111.627 433.308 117.088C428.359 122.549 421.361 125.28 412.316 125.28C403.271 125.28 396.273 122.549 391.324 117.088C386.375 111.627 383.9 104.373 383.9 95.328V87.648C383.9 78.6027 386.332 71.392 391.196 66.016C396.145 60.5547 403.185 57.824 412.316 57.824C421.447 57.824 428.444 60.5547 433.308 66.016C438.257 71.392 440.732 78.6027 440.732 87.648ZM425.628 87.648C425.628 82.4427 424.476 78.3893 422.172 75.488C419.868 72.5013 416.583 71.008 412.316 71.008C408.049 71.008 404.764 72.5013 402.46 75.488C400.156 78.3893 399.004 82.4427 399.004 87.648V95.328C399.004 100.533 400.156 104.629 402.46 107.616C404.764 110.603 408.049 112.096 412.316 112.096C416.583 112.096 419.868 110.603 422.172 107.616C424.476 104.629 425.628 100.533 425.628 95.328V87.648ZM488.981 71.52C486.848 71.52 484.416 72.032 481.685 73.056C478.954 74.08 475.712 76.0853 471.957 79.072V124H457.237V59.104H471.189V67.808C475.2 64.3093 478.997 61.792 482.581 60.256C486.165 58.6347 489.792 57.824 493.461 57.824C499.69 57.824 504.426 59.8293 507.669 63.84C510.912 67.7653 512.533 73.312 512.533 80.48V124H497.813V82.272C497.813 75.104 494.869 71.52 488.981 71.52ZM570.003 124V115.168C566.078 119.093 562.664 121.781 559.763 123.232C556.947 124.597 554.003 125.28 550.931 125.28C543.934 125.28 538.472 122.635 534.547 117.344C530.707 112.053 528.787 104.629 528.787 95.072V88.16C528.787 78.8587 531.134 71.4773 535.827 66.016C540.52 60.5547 547.304 57.824 556.179 57.824C558.398 57.824 560.574 58.0373 562.707 58.464C564.926 58.8907 567.102 59.488 569.235 60.256V29.28H583.955V124H570.003ZM543.891 95.072C543.891 100.789 544.83 104.971 546.707 107.616C548.67 110.261 551.4 111.584 554.899 111.584C556.862 111.584 558.952 111.029 561.171 109.92C563.39 108.725 566.078 106.507 569.235 103.264V73.568C565.054 71.8613 561.214 71.008 557.715 71.008C552.766 71.008 549.224 72.544 547.091 75.616C544.958 78.688 543.891 82.8693 543.891 88.16V95.072ZM657.357 87.648V95.328C657.357 104.373 654.882 111.627 649.933 117.088C644.984 122.549 637.986 125.28 628.941 125.28C619.896 125.28 612.898 122.549 607.949 117.088C603 111.627 600.525 104.373 600.525 95.328V87.648C600.525 78.6027 602.957 71.392 607.821 66.016C612.77 60.5547 619.81 57.824 628.941 57.824C638.072 57.824 645.069 60.5547 649.933 66.016C654.882 71.392 657.357 78.6027 657.357 87.648ZM642.253 87.648C642.253 82.4427 641.101 78.3893 638.797 75.488C636.493 72.5013 633.208 71.008 628.941 71.008C624.674 71.008 621.389 72.5013 619.085 75.488C616.781 78.3893 615.629 82.4427 615.629 87.648V95.328C615.629 100.533 616.781 104.629 619.085 107.616C621.389 110.603 624.674 112.096 628.941 112.096C633.208 112.096 636.493 110.603 638.797 107.616C641.101 104.629 642.253 100.533 642.253 95.328V87.648ZM705.606 71.52C703.473 71.52 701.041 72.032 698.31 73.056C695.579 74.08 692.337 76.0853 688.582 79.072V124H673.862V59.104H687.814V67.808C691.825 64.3093 695.622 61.792 699.206 60.256C702.79 58.6347 706.417 57.824 710.086 57.824C716.315 57.824 721.051 59.8293 724.294 63.84C727.537 67.7653 729.158 73.312 729.158 80.48V124H714.438V82.272C714.438 75.104 711.494 71.52 705.606 71.52Z" fill="#A05AFF"/>
</svg>