<svg xmlns="http://www.w3.org/2000/svg" viewBox="0 0 841.9 595.3"><g fill="#61DAFB"><path fill-rule="evenodd" clip-rule="evenodd" d="M66.2662 153.475C38.6822 130.982 1 93.8241 1 58.6916C1 3.27656 52.564 -21.9128 94.75 23.426C136.936 -21.9128 188.5 3.27478 188.5 58.6912C188.5 93.825 150.818 130.982 123.234 153.475C110.747 163.658 104.503 168.75 94.75 168.75C84.9972 168.75 78.7534 163.658 66.2662 153.475ZM76.8737 72.6216C77.7128 71.4225 78.4103 70.4269 79.0309 69.5747C79.5559 70.4887 80.1419 71.5538 80.8469 72.8363L96.8809 101.988C98.4372 104.82 99.9644 107.598 101.497 109.613C103.138 111.77 106.022 114.726 110.644 114.812C115.266 114.899 118.26 112.054 119.98 109.96C121.588 108.004 123.217 105.286 124.879 102.515L125.399 101.648C127.469 98.1984 128.772 96.0413 129.925 94.4831C130.988 93.0478 131.602 92.5791 132.061 92.3203C132.518 92.0606 133.236 91.7756 135.014 91.6022C136.943 91.4147 139.463 91.4072 143.487 91.4072H151C154.883 91.4072 158.031 88.2591 158.031 84.3759C158.031 80.4928 154.883 77.3447 151 77.3447H143.183C139.554 77.3447 136.344 77.3447 133.653 77.6062C130.736 77.8894 127.897 78.5166 125.132 80.0831C122.366 81.6488 120.367 83.76 118.623 86.1159C117.015 88.2881 115.364 91.0406 113.496 94.1531L113.051 94.8956C112.238 96.2513 111.559 97.38 110.954 98.3494C110.384 97.3584 109.749 96.2044 108.987 94.8197L92.9613 65.6812C91.5166 63.0525 90.0766 60.4337 88.6169 58.5138C87.0213 56.4164 84.2866 53.6432 79.9037 53.4066C75.5207 53.1699 72.5029 55.6326 70.6912 57.5459C69.0328 59.2974 67.3197 61.7461 65.6002 64.2038L62.6998 68.3475C60.5703 71.3897 59.2352 73.2853 58.0795 74.6522C57.0156 75.9103 56.4243 76.3228 55.9879 76.5497C55.5514 76.7775 54.8747 77.025 53.2337 77.175C51.451 77.3381 49.1325 77.3447 45.419 77.3447H38.5C34.6168 77.3447 31.4688 80.4928 31.4688 84.3759C31.4688 88.2591 34.6168 91.4072 38.5 91.4072H45.7011C49.0477 91.4072 52.0143 91.4072 54.5126 91.1794C57.2225 90.9319 59.866 90.3853 62.4821 89.0231C65.0982 87.6609 67.062 85.8094 68.8188 83.7309C70.4384 81.8147 72.1395 79.3847 74.0585 76.6425L76.8737 72.6216Z" fill="#A05AFF" stroke="#FF5CBB" stroke-width="0.00225"/></g></svg>

